<svg width="223" height="112" viewBox="0 0 223 112" fill="none" xmlns="http://www.w3.org/2000/svg">
<path d="M-0.000313867 87.9999L39.9997 111.094L39.9997 64.906L-0.000313867 87.9999ZM70.4996 88.0003L70.1884 84.0124L70.4996 88.0003ZM36.5 88L36.6988 84.0049L36.5 84L36.5 88ZM219 2.99991C215.68 0.768808 215.68 0.768456 215.68 0.76823C215.68 0.768322 215.68 0.76822 215.68 0.768402C215.68 0.768766 215.679 0.769628 215.678 0.770986C215.676 0.773702 215.673 0.7784 215.669 0.785058C215.66 0.798374 215.645 0.819529 215.626 0.848344C215.587 0.905975 215.527 0.994242 215.446 1.11172C215.285 1.34669 215.042 1.69844 214.721 2.15559C214.08 3.07001 213.129 4.40545 211.902 6.0709C209.446 9.40326 205.891 14.0488 201.508 19.282C192.709 29.7884 180.714 42.492 167.685 51.7376L170 54.9997L172.315 58.2618C186.153 48.442 198.658 35.1456 207.642 24.4185C212.15 19.0349 215.808 14.2553 218.342 10.8167C219.609 9.09666 220.597 7.71016 221.271 6.749C221.608 6.26837 221.867 5.89393 222.043 5.63715C222.131 5.50876 222.199 5.40976 222.245 5.3416C222.268 5.30752 222.286 5.28115 222.298 5.26266C222.305 5.25341 222.309 5.24614 222.313 5.24086C222.315 5.23822 222.316 5.23608 222.317 5.23444C222.318 5.23362 222.318 5.23276 222.319 5.23235C222.319 5.23162 222.32 5.23102 219 2.99991ZM170 54.9997L167.685 51.7376C141.519 70.3053 110.431 80.871 70.1884 84.0124L70.4996 88.0003L70.8109 91.9881C112.197 88.7575 144.746 77.8251 172.315 58.2618L170 54.9997ZM70.4996 88.0003L70.1884 84.0124C63.7722 84.5132 55.4327 84.5171 48.6113 84.3883C45.2188 84.3243 42.2353 84.2282 40.1008 84.1481C39.0339 84.1081 38.1802 84.0722 37.5946 84.0463C37.3019 84.0333 37.0762 84.0229 36.9246 84.0158C36.8488 84.0122 36.7915 84.0094 36.7536 84.0076C36.7347 84.0067 36.7205 84.006 36.7114 84.0055C36.7068 84.0053 36.7034 84.0051 36.7014 84.005C36.7003 84.005 36.6996 84.0049 36.6992 84.0049C36.6989 84.0049 36.6989 84.0049 36.6988 84.0049C36.6988 84.0049 36.6988 84.0049 36.5 88C36.3011 91.995 36.3013 91.995 36.3016 91.995C36.3018 91.9951 36.3022 91.9951 36.3026 91.9951C36.3035 91.9951 36.3047 91.9952 36.3061 91.9953C36.3091 91.9954 36.3133 91.9956 36.3187 91.9959C36.3296 91.9964 36.3455 91.9972 36.3662 91.9982C36.4077 92.0002 36.4686 92.0031 36.5481 92.0069C36.7071 92.0144 36.9404 92.0252 37.2412 92.0385C37.8428 92.0651 38.7146 92.1018 39.801 92.1425C41.9731 92.224 45.0075 92.3217 48.4603 92.3869C55.3293 92.5166 63.9896 92.5206 70.8109 91.9881L70.4996 88.0003ZM36.5 88L36.5 84L35.9997 84L35.9997 88L35.9997 92L36.4999 92L36.5 88Z" fill="black"/>
</svg>
