<svg width="18" height="21" viewBox="0 0 18 21" fill="none" xmlns="http://www.w3.org/2000/svg">
<path d="M9.53781 2.19006C10.1049 2.19013 10.6185 2.53915 10.9021 3.05432C11.04 3.30361 11.1321 3.61112 11.1091 3.93518C11.0938 4.18448 11.1622 4.43395 11.2849 4.66663C11.6758 5.37293 12.542 5.63863 13.2165 5.23987C13.9753 4.75789 14.9339 5.04901 15.3708 5.8717L15.8835 6.85217C16.328 7.67479 16.0834 8.73 15.3171 9.20374C14.6657 9.62746 14.4353 10.5663 14.8259 11.2809C14.9485 11.5053 15.0869 11.6968 15.3015 11.8131C15.5697 11.971 15.7769 12.2201 15.9226 12.4694C16.2062 12.9846 16.1829 13.6167 15.9069 14.1735L15.3708 15.1705C15.0872 15.7024 14.5576 16.0348 14.0134 16.0348C13.7452 16.0347 13.446 15.9509 13.2009 15.7848C13.0018 15.6438 12.772 15.5944 12.5271 15.5944C11.7683 15.5944 11.1321 16.2844 11.1091 17.1071C11.1089 18.0625 10.4035 18.8102 9.52218 18.8102H8.48019C7.59124 18.8102 6.8857 18.0625 6.88546 17.1071C6.87013 16.2844 6.23411 15.5944 5.47531 15.5944C5.22239 15.5944 4.99211 15.6435 4.8005 15.7848C4.55524 15.951 4.24859 16.0348 3.988 16.0348C3.4363 16.0346 2.90727 15.7022 2.62374 15.1705L2.09542 14.1735C1.81183 13.6333 1.79621 12.9846 2.0798 12.4694C2.20245 12.2201 2.43253 11.971 2.69308 11.8131C2.90769 11.6968 3.0452 11.5053 3.1755 11.2809C3.55867 10.5662 3.32893 9.62753 2.67746 9.20374C1.91882 8.73 1.6742 7.67479 2.11105 6.85217L2.62374 5.8717C3.0683 5.04901 4.01939 4.75789 4.78585 5.23987C5.45265 5.63854 6.31883 5.37289 6.70968 4.66663C6.83232 4.43395 6.90079 4.18448 6.88546 3.93518C6.87013 3.61109 6.95468 3.30362 7.10031 3.05432C7.38387 2.53915 7.8973 2.20674 8.45675 2.19006H9.53781ZM9.00851 8.15686C7.80524 8.15697 6.83175 9.20382 6.83175 10.5084C6.83176 11.813 7.80525 12.8521 9.00851 12.8522C10.2119 12.8522 11.1628 11.8131 11.1628 10.5084C11.1628 9.20375 10.2119 8.15686 9.00851 8.15686Z" fill="#433BFF"/>
</svg>
