<svg width="18" height="21" viewBox="0 0 18 21" fill="none" xmlns="http://www.w3.org/2000/svg">
<path d="M9.53805 2.19012C10.1052 2.19019 10.6187 2.53921 10.9023 3.05438C11.0403 3.30367 11.1323 3.61118 11.1093 3.93524C11.094 4.18454 11.1625 4.43401 11.2851 4.66669C11.676 5.37299 12.5423 5.6387 13.2168 5.23993C13.9756 4.75795 14.9342 5.04907 15.3711 5.87177L15.8838 6.85223C16.3283 7.67485 16.0837 8.73006 15.3173 9.2038C14.666 9.62752 14.4356 10.5663 14.8261 11.2809C14.9488 11.5053 15.0871 11.6968 15.3017 11.8132C15.57 11.9711 15.7772 12.2201 15.9228 12.4694C16.2064 12.9846 16.1831 13.6168 15.9072 14.1735L15.3711 15.1706C15.0875 15.7024 14.5578 16.0349 14.0136 16.0349C13.7455 16.0348 13.4463 15.951 13.2011 15.7849C13.002 15.6439 12.7723 15.5944 12.5273 15.5944C11.7685 15.5944 11.1323 16.2844 11.1093 17.1071C11.1091 18.0625 10.4037 18.8102 9.52243 18.8102H8.48043C7.59148 18.8102 6.88595 18.0625 6.88571 17.1071C6.87038 16.2844 6.23435 15.5944 5.47555 15.5944C5.22264 15.5944 4.99235 15.6436 4.80075 15.7849C4.55548 15.951 4.24884 16.0349 3.98825 16.0349C3.43654 16.0347 2.90751 15.7023 2.62399 15.1706L2.09567 14.1735C1.81208 13.6334 1.79645 12.9846 2.08004 12.4694C2.20269 12.2202 2.43278 11.971 2.69332 11.8132C2.90794 11.6968 3.04545 11.5053 3.17575 11.2809C3.55892 10.5663 3.32917 9.62759 2.6777 9.2038C1.91906 8.73006 1.67445 7.67485 2.11129 6.85223L2.62399 5.87177C3.06854 5.04907 4.01963 4.75795 4.7861 5.23993C5.45289 5.6386 6.31907 5.37295 6.70993 4.66669C6.83256 4.43401 6.90104 4.18454 6.88571 3.93524C6.87038 3.61115 6.95492 3.30368 7.10055 3.05438C7.38412 2.53921 7.89754 2.20681 8.457 2.19012H9.53805ZM9.00875 8.15692C7.80549 8.15703 6.832 9.20388 6.832 10.5085C6.832 11.8131 7.80549 12.8521 9.00875 12.8522C10.2121 12.8522 11.163 11.8132 11.1631 10.5085C11.1631 9.20381 10.2121 8.15692 9.00875 8.15692Z" fill="#A6ABC8"/>
</svg>
