<svg width="18" height="20" viewBox="0 0 18 20" fill="none" xmlns="http://www.w3.org/2000/svg">
<path fill-rule="evenodd" clip-rule="evenodd" d="M5.49799 1.68127H12.5022C15.053 1.68127 16.493 3.28287 16.5005 6.10661V13.8613C16.5005 16.6843 15.053 18.2867 12.5022 18.2867H5.49799C2.94724 18.2867 1.50049 16.6843 1.50049 13.8613V6.10661C1.50049 3.28287 2.94724 1.68127 5.49799 1.68127ZM9.03729 14.8494C9.36054 14.8494 9.62979 14.5837 9.65979 14.2267V5.7662C9.68979 5.50882 9.57804 5.2506 9.37554 5.11029C9.16479 4.96914 8.90979 4.96914 8.70804 5.11029C8.50479 5.2506 8.39304 5.50882 8.41479 5.7662V14.2267C8.45304 14.5837 8.72229 14.8494 9.03729 14.8494ZM12.488 14.8494C12.803 14.8494 13.0723 14.5837 13.1105 14.2267V11.5034C13.1323 11.2369 13.0205 10.9886 12.8173 10.8475C12.6155 10.7063 12.3605 10.7063 12.1505 10.8475C11.9473 10.9886 11.8355 11.2369 11.8655 11.5034V14.2267C11.8955 14.5837 12.1648 14.8494 12.488 14.8494ZM6.16476 14.2267C6.13476 14.5837 5.86551 14.8494 5.54226 14.8494C5.21976 14.8494 4.94976 14.5837 4.92051 14.2267V8.48949C4.89801 8.23128 5.00976 7.97472 5.21301 7.83358C5.41476 7.69243 5.67051 7.69243 5.87301 7.83358C6.07476 7.97472 6.18801 8.23128 6.16476 8.48949V14.2267Z" fill="#433BFF"/>
</svg>
