<svg width="18" height="21" viewBox="0 0 18 21" fill="none" xmlns="http://www.w3.org/2000/svg">
<path fill-rule="evenodd" clip-rule="evenodd" d="M5.49774 2.19763H12.502C15.0527 2.19763 16.4927 3.79922 16.5002 6.62297V14.3777C16.5002 17.2006 15.0527 18.803 12.502 18.803H5.49774C2.94699 18.803 1.50024 17.2006 1.50024 14.3777V6.62297C1.50024 3.79922 2.94699 2.19763 5.49774 2.19763ZM9.03704 15.3657C9.36029 15.3657 9.62954 15.1 9.65954 14.743V6.28256C9.68954 6.02518 9.57779 5.76696 9.37529 5.62665C9.16454 5.4855 8.90954 5.4855 8.70779 5.62665C8.50454 5.76696 8.39279 6.02518 8.41454 6.28256V14.743C8.45279 15.1 8.72204 15.3657 9.03704 15.3657ZM12.4878 15.3657C12.8028 15.3657 13.072 15.1 13.1103 14.743V12.0197C13.132 11.7532 13.0203 11.505 12.817 11.3638C12.6153 11.2227 12.3603 11.2227 12.1503 11.3638C11.947 11.505 11.8353 11.7532 11.8653 12.0197V14.743C11.8953 15.1 12.1645 15.3657 12.4878 15.3657ZM6.16452 14.743C6.13452 15.1 5.86527 15.3657 5.54202 15.3657C5.21952 15.3657 4.94952 15.1 4.92027 14.743V9.00585C4.89777 8.74763 5.00952 8.49108 5.21277 8.34993C5.41452 8.20879 5.67027 8.20879 5.87277 8.34993C6.07452 8.49108 6.18777 8.74763 6.16452 9.00585V14.743Z" fill="#A6ABC8" fill-opacity="0.6"/>
</svg>
