<svg width="60" height="60" viewBox="0 0 60 60" fill="none" xmlns="http://www.w3.org/2000/svg">
<rect width="60" height="60" rx="30" fill="#7B72FF"/>
<path d="M42 20.5V14.875C42 14.3777 41.8025 13.9008 41.4508 13.5492C41.0992 13.1975 40.6223 13 40.125 13H15.75C14.7554 13 13.8016 13.3951 13.0983 14.0983C12.3951 14.8016 12 15.7554 12 16.75C12 17.7446 12.3951 18.6984 13.0983 19.4017C13.8016 20.1049 14.7554 20.5 15.75 20.5H43.875C44.3723 20.5 44.8492 20.6975 45.2008 21.0492C45.5525 21.4008 45.75 21.8777 45.75 22.375V29.875M45.75 29.875H40.125C39.1304 29.875 38.1766 30.2701 37.4734 30.9734C36.7701 31.6766 36.375 32.6304 36.375 33.625C36.375 34.6196 36.7701 35.5734 37.4734 36.2766C38.1766 36.9799 39.1304 37.375 40.125 37.375H45.75C46.2473 37.375 46.7242 37.1775 47.0758 36.8258C47.4275 36.4742 47.625 35.9973 47.625 35.5V31.75C47.625 31.2527 47.4275 30.7758 47.0758 30.4242C46.7242 30.0725 46.2473 29.875 45.75 29.875Z" stroke="black" stroke-width="2" stroke-linecap="round" stroke-linejoin="round"/>
<path d="M12 16.75V43C12 43.9946 12.3951 44.9484 13.0983 45.6516C13.8016 46.3549 14.7554 46.75 15.75 46.75H43.875C44.3723 46.75 44.8492 46.5525 45.2008 46.2008C45.5525 45.8492 45.75 45.3723 45.75 44.875V37.375" stroke="black" stroke-width="2" stroke-linecap="round" stroke-linejoin="round"/>
</svg>
