<svg width="60" height="60" viewBox="0 0 60 60" fill="none" xmlns="http://www.w3.org/2000/svg">
<rect width="60" height="60" rx="30" fill="#F89521"/>
<path d="M11.2188 23.4688H47.7812M11.2188 24.875H47.7812M16.8438 34.7188H28.0938M16.8438 38.9375H22.4688M15.4375 44.5625H43.5625C44.6814 44.5625 45.7544 44.118 46.5456 43.3269C47.3368 42.5357 47.7812 41.4626 47.7812 40.3438V20.6562C47.7812 19.5374 47.3368 18.4643 46.5456 17.6731C45.7544 16.882 44.6814 16.4375 43.5625 16.4375H15.4375C14.3186 16.4375 13.2456 16.882 12.4544 17.6731C11.6632 18.4643 11.2188 19.5374 11.2188 20.6562V40.3438C11.2188 41.4626 11.6632 42.5357 12.4544 43.3269C13.2456 44.118 14.3186 44.5625 15.4375 44.5625Z" stroke="black" stroke-width="1.5" stroke-linecap="round" stroke-linejoin="round"/>
</svg>
