<svg width="18" height="21" viewBox="0 0 18 21" fill="none" xmlns="http://www.w3.org/2000/svg">
<path fill-rule="evenodd" clip-rule="evenodd" d="M5.8575 2.19H12.1432C14.46 2.19 15.75 3.66919 15.75 6.20375V14.788C15.75 17.3641 14.46 18.8101 12.1432 18.8101H5.8575C3.5775 18.8101 2.25 17.3641 2.25 14.788V6.20375C2.25 3.66919 3.5775 2.19 5.8575 2.19ZM6.06011 6.06248V6.05417H8.30185C8.6251 6.05417 8.8876 6.34502 8.8876 6.70152C8.8876 7.06799 8.6251 7.35885 8.30185 7.35885H6.06011C5.73686 7.35885 5.47511 7.06799 5.47511 6.71066C5.47511 6.35333 5.73686 6.06248 6.06011 6.06248ZM6.06011 11.115H11.9401C12.2626 11.115 12.5251 10.8241 12.5251 10.4668C12.5251 10.1095 12.2626 9.81778 11.9401 9.81778H6.06011C5.73686 9.81778 5.47511 10.1095 5.47511 10.4668C5.47511 10.8241 5.73686 11.115 6.06011 11.115ZM6.06002 14.9127H11.94C12.2393 14.8794 12.465 14.596 12.465 14.2645C12.465 13.9238 12.2393 13.6412 11.94 13.608H6.06002C5.83502 13.5831 5.61752 13.6994 5.49752 13.9155C5.37752 14.1232 5.37752 14.3974 5.49752 14.6135C5.61752 14.8212 5.83502 14.9459 6.06002 14.9127Z" fill="#A6ABC8"/>
</svg>
