<svg width="18" height="21" viewBox="0 0 18 21" fill="none" xmlns="http://www.w3.org/2000/svg">
<path fill-rule="evenodd" clip-rule="evenodd" d="M5.8575 2.18994H12.1432C14.46 2.18994 15.75 3.66913 15.75 6.20369V14.7879C15.75 17.3641 14.46 18.81 12.1432 18.81H5.8575C3.5775 18.81 2.25 17.3641 2.25 14.7879V6.20369C2.25 3.66913 3.5775 2.18994 5.8575 2.18994ZM6.06011 6.06242V6.05411H8.30185C8.6251 6.05411 8.8876 6.34496 8.8876 6.70146C8.8876 7.06793 8.6251 7.35878 8.30185 7.35878H6.06011C5.73686 7.35878 5.47511 7.06793 5.47511 6.7106C5.47511 6.35327 5.73686 6.06242 6.06011 6.06242ZM6.06011 11.1149H11.9401C12.2626 11.1149 12.5251 10.8241 12.5251 10.4667C12.5251 10.1094 12.2626 9.81772 11.9401 9.81772H6.06011C5.73686 9.81772 5.47511 10.1094 5.47511 10.4667C5.47511 10.8241 5.73686 11.1149 6.06011 11.1149ZM6.06002 14.9126H11.94C12.2393 14.8794 12.465 14.596 12.465 14.2644C12.465 13.9237 12.2393 13.6412 11.94 13.6079H6.06002C5.83502 13.583 5.61752 13.6993 5.49752 13.9154C5.37752 14.1231 5.37752 14.3974 5.49752 14.6134C5.61752 14.8212 5.83502 14.9458 6.06002 14.9126Z" fill="#433BFF"/>
</svg>
