<svg width="189" height="70" viewBox="0 0 189 70" fill="none" xmlns="http://www.w3.org/2000/svg">
<path fill-rule="evenodd" clip-rule="evenodd" d="M26.7001 22.3753V56.0629H18.9718V52.0644C17.8525 53.6929 16.5381 54.9209 15.0479 55.7342C13.559 56.5493 11.8831 56.9618 10.0234 56.9618C6.78428 56.9618 4.3563 55.9908 2.7404 54.0532C1.1183 52.1099 0.31543 49.1982 0.31543 45.3382V22.3753H8.20922V42.7361C8.20922 45.136 8.56207 46.8393 9.26474 47.866C9.96757 48.8917 11.1333 49.3991 12.7626 49.3991C14.6041 49.3991 16.0757 48.7635 17.1672 47.4963C18.2589 46.2268 18.8059 44.4906 18.8059 42.3023V22.3753H26.7001Z" fill="#2C2C2B"/>
<path fill-rule="evenodd" clip-rule="evenodd" d="M121.297 69.6015V22.4066H128.803V26.9654C129.942 24.9766 131.219 23.5388 132.616 22.6284C134.014 21.7189 135.67 21.2641 137.567 21.2641C141.194 21.2641 144.146 22.9037 146.404 26.1721C148.663 29.4513 149.793 33.7553 149.793 39.0758C149.793 44.4698 148.663 48.8487 146.404 52.2013C144.146 55.5539 141.232 57.2367 137.67 57.2367C135.79 57.2367 134.115 56.7806 132.645 55.872C131.172 54.962 129.942 53.6396 128.969 51.9056V69.6015H121.297ZM141.953 39.4464C141.953 36.0604 141.389 33.4703 140.269 31.6819C139.15 29.8958 137.529 29.0059 135.392 29.0059C133.301 29.0059 131.699 29.8958 130.607 31.6721C129.515 33.4484 128.969 36.0399 128.969 39.4464C128.969 42.6298 129.544 45.0943 130.69 46.8287C131.839 48.5627 133.458 49.4299 135.559 49.4299C137.548 49.4299 139.102 48.5422 140.241 46.765C141.38 44.9874 141.953 42.5456 141.953 39.4464Z" fill="#2C2C2B"/>
<path fill-rule="evenodd" clip-rule="evenodd" d="M99.3445 45.8665C99.5277 47.2063 100.046 48.2339 100.91 48.9434C101.919 49.7764 103.436 50.2031 105.461 50.2031C106.998 50.2031 108.19 49.9024 109.034 49.314C109.874 48.7287 110.292 47.8972 110.292 46.8179C110.292 45.295 108.719 44.1374 105.573 43.3806C104.287 43.0702 103.268 42.7976 102.51 42.5767C98.6711 41.4556 96.0151 40.1407 94.5233 38.6098C93.0361 37.0851 92.2835 35.0135 92.2835 32.4118C92.2835 28.9648 93.3787 26.2379 95.5494 24.2251C97.7272 22.2101 100.678 21.2003 104.398 21.2003C108.34 21.2003 111.444 22.2025 113.689 24.2046C115.94 26.2099 117.131 29.0285 117.28 32.6662H109.607C109.553 31.2382 109.081 30.1362 108.182 29.3452C107.294 28.5621 106.045 28.171 104.452 28.171C102.953 28.171 101.845 28.4249 101.112 28.9438C100.382 29.4619 100.011 30.2329 100.011 31.2694C100.011 32.6127 101.97 33.81 105.897 34.8349C106.791 35.0679 107.506 35.2527 108.034 35.3943C111.958 36.4473 114.64 37.715 116.078 39.2013C117.509 40.6845 118.233 42.7771 118.233 45.4843C118.233 49.314 117.059 52.2257 114.697 54.2323C112.34 56.2336 108.905 57.2366 104.407 57.2366C100.335 57.2366 97.1512 56.189 94.8569 54.1054C92.6433 52.0952 91.4951 49.3452 91.416 45.8665H99.3445Z" fill="#2C2C2B"/>
<path fill-rule="evenodd" clip-rule="evenodd" d="M68.9649 35.7021H80.5693C80.4948 33.4274 79.9722 31.6983 78.9866 30.5081C78.0022 29.3189 76.5805 28.7309 74.7394 28.7309C73.0266 28.7309 71.6735 29.3322 70.6851 30.5291C69.7022 31.7223 69.1305 33.4483 68.9649 35.7021ZM80.4586 45.8665H88.3251C87.5289 49.4196 85.9248 52.1985 83.5121 54.2114C81.0946 56.2269 78.1534 57.2366 74.6833 57.2366C70.4174 57.2366 67.0334 55.6006 64.5404 52.3273C62.0461 49.0552 60.8018 44.6176 60.8018 39.0125C60.8018 33.5022 62.0302 29.1514 64.485 25.9711C66.9442 22.7846 70.3063 21.2003 74.5726 21.2003C79.0977 21.2003 82.59 22.7637 85.0487 25.8972C87.504 29.0249 88.732 33.4799 88.732 39.2659C88.732 39.9117 88.732 40.3879 88.7226 40.7148C88.7137 41.032 88.6856 41.3389 88.6486 41.6248H68.9649C69.0756 44.2692 69.6399 46.2576 70.6578 47.6005C71.6758 48.9434 73.1474 49.6102 75.0629 49.6102C76.4234 49.6102 77.5357 49.3047 78.395 48.7002C79.2652 48.0891 79.9496 47.1457 80.4586 45.8665Z" fill="#2C2C2B"/>
<path fill-rule="evenodd" clip-rule="evenodd" d="M31.3374 56.063V22.3758H39.0652V26.3743C40.1763 24.7445 41.4714 23.5174 42.9706 22.7032C44.4695 21.889 46.1445 21.4761 47.9863 21.4761C51.2433 21.4761 53.6786 22.4386 55.2975 24.3748C56.9164 26.3102 57.722 29.208 57.722 33.1005V56.063H49.8282V35.7022C49.8282 33.28 49.4665 31.5554 48.7545 30.5305C48.0413 29.4936 46.885 28.9751 45.275 28.9751C43.4145 28.9751 41.9429 29.6102 40.8607 30.8797C39.7784 32.1491 39.2312 33.8827 39.2312 36.0728V56.063H31.3374Z" fill="#2C2C2B"/>
<path fill-rule="evenodd" clip-rule="evenodd" d="M184.124 21.7339L189 12.0738H179.252L184.124 21.7339ZM178.229 12.7517L173.356 22.4074H183.104L178.229 12.7517ZM178.229 33.4136L183.104 23.7539H173.356L178.229 33.4136ZM172.333 24.4274L167.462 34.0871H177.209L172.333 24.4274ZM171.314 23.7539H161.566L166.442 33.4136L171.314 23.7539ZM166.442 12.7517L161.566 22.4074H171.314L166.442 12.7517ZM167.462 12.0738L172.333 21.7339L177.209 12.0738H167.462ZM172.333 1.072L167.462 10.7268H177.209L172.333 1.072ZM166.442 10.0538L171.314 0.398529H161.566L166.442 10.0538ZM160.546 1.072L155.671 10.7268H165.418L160.546 1.072ZM160.546 21.7339L165.418 12.0738H155.671L160.546 21.7339L154.651 12.7851L149.792 22.4074H159.511L154.651 12.7851L160.546 21.7339Z" fill="#009FE0"/>
</svg>
